<?xml version="1.0" standalone="no"?>
<!DOCTYPE svg PUBLIC "-//W3C//DTD SVG 20010904//EN"
 "http://www.w3.org/TR/2001/REC-SVG-20010904/DTD/svg10.dtd">
<svg version="1.0" xmlns="http://www.w3.org/2000/svg"
 width="251.000000pt" height="251.000000pt" viewBox="0 0 251.000000 251.000000"
 preserveAspectRatio="xMidYMid meet">
<metadata>
Created by potrace 1.11, written by Peter Selinger 2001-2013
</metadata>
<g transform="translate(0.000000,251.000000) scale(0.100000,-0.100000)"
fill="#000000" stroke="none">
<path d="M1045 2494 c-529 -97 -941 -519 -1022 -1049 -20 -134 -13 -337 16
-463 99 -432 410 -779 822 -916 156 -52 240 -65 419 -62 221 4 344 33 535 127
296 146 534 421 635 735 46 144 52 203 48 431 -5 200 -6 212 -37 313 -124 402
-423 710 -812 839 -36 12 -74 23 -85 25 -10 3 -39 9 -64 16 -73 18 -362 21
-455 4z"/>
</g>
</svg>
