<?xml version="1.0" standalone="no"?>
<!DOCTYPE svg PUBLIC "-//W3C//DTD SVG 20010904//EN"
 "http://www.w3.org/TR/2001/REC-SVG-20010904/DTD/svg10.dtd">
<svg version="1.0" xmlns="http://www.w3.org/2000/svg"
 width="260.000000pt" height="260.000000pt" viewBox="0 0 260.000000 260.000000"
 preserveAspectRatio="xMidYMid meet">
<metadata>
Created by potrace 1.11, written by Peter Selinger 2001-2013
</metadata>
<g transform="translate(0.000000,260.000000) scale(0.100000,-0.100000)"
fill="#000000" stroke="none">
<path d="M1145 2593 c-291 -38 -563 -171 -760 -374 -50 -51 -75 -85 -73 -96 2
-10 -3 -24 -12 -31 -11 -10 -12 -15 -2 -18 6 -3 9 -10 6 -16 -4 -6 -2 -13 4
-17 15 -9 32 -121 31 -201 -1 -80 25 -217 46 -240 8 -9 15 -25 15 -36 0 -11 4
-24 9 -29 5 -6 11 -21 13 -35 2 -15 19 -36 45 -55 39 -28 52 -53 36 -68 -3 -4
-13 -1 -21 6 -13 10 -15 9 -8 -8 4 -11 17 -44 28 -72 22 -60 52 -74 41 -20 -6
29 -5 31 10 19 9 -8 28 -34 43 -59 28 -48 71 -74 121 -72 22 0 17 3 -19 13
-26 7 -54 18 -62 25 -21 18 -58 119 -54 150 4 32 49 59 113 68 l48 6 -21 -21
c-36 -36 -24 -58 23 -46 16 4 25 13 25 25 0 10 5 19 10 19 6 0 10 6 10 14 0
24 20 29 40 11 17 -15 19 -15 28 2 6 10 14 14 18 10 4 -4 -2 -16 -14 -27 -12
-12 -22 -24 -22 -28 1 -19 20 -33 48 -34 18 -1 32 -5 32 -10 0 -4 5 -8 12 -8
9 0 9 3 1 11 -9 9 -8 19 3 41 13 26 29 31 29 10 0 -4 4 -13 8 -20 5 -7 2 -14
-7 -18 -20 -8 -20 -20 -1 -28 21 -8 45 3 45 20 0 8 7 14 15 14 8 0 15 5 15 11
0 5 4 7 10 4 5 -3 19 -1 30 5 17 9 22 7 30 -16 17 -43 1 -95 -39 -133 l-36
-34 33 19 c37 21 56 50 67 104 12 58 31 80 70 80 41 0 65 -22 65 -60 0 -32 52
-100 77 -100 8 0 12 3 10 8 -3 4 43 8 102 9 113 2 231 26 309 65 45 21 81 76
82 124 0 23 25 62 34 53 4 -3 7 -43 8 -88 0 -44 2 -81 5 -81 7 0 39 35 56 62
11 18 17 48 17 90 0 78 -11 99 -33 67 -22 -31 -33 -17 -12 15 15 23 15 26 2
26 -10 0 -13 6 -10 20 3 11 8 20 12 20 10 0 43 71 37 78 -3 2 1 19 9 38 18 45
20 72 8 116 -12 41 -8 70 15 105 7 12 16 49 19 81 5 55 3 64 -35 132 -47 85
-90 138 -220 266 -88 88 -96 93 -160 108 -133 32 -336 45 -457 29z m-540 -673
c10 -11 26 -20 35 -20 10 0 23 -7 30 -15 15 -18 43 -19 70 -3 15 10 22 9 38
-6 15 -13 21 -14 24 -4 3 8 22 -4 52 -35 53 -53 60 -56 51 -26 -5 16 -4 19 5
14 9 -6 10 3 5 35 l-7 42 26 -17 c14 -9 29 -14 34 -11 6 3 16 -1 23 -10 12
-15 51 -36 74 -40 41 -7 76 -18 81 -25 6 -11 24 -12 23 -1 -4 26 2 32 21 22
16 -9 19 -8 14 7 -5 17 -5 17 9 1 19 -24 26 -23 19 4 -6 23 -2 22 51 -15 17
-11 49 -21 78 -22 27 -1 56 -8 64 -15 20 -17 45 3 45 37 0 23 1 23 21 9 12 -8
26 -13 33 -11 14 6 38 -13 60 -47 12 -18 14 -28 7 -28 -7 0 -3 -10 9 -22 30
-33 24 -40 -16 -19 -20 11 -41 18 -48 16 -6 -3 -23 -6 -38 -9 -15 -3 -43 -16
-61 -30 -19 -14 -40 -26 -48 -26 -8 0 -28 -14 -46 -30 -18 -17 -37 -29 -44
-28 -13 3 -32 -50 -23 -64 3 -4 12 -8 20 -8 43 0 -16 -61 -66 -67 -22 -3 -43
-9 -45 -13 -6 -9 -88 6 -117 21 -39 21 -220 13 -348 -14 -63 -14 -128 -30
-144 -36 -16 -7 -33 -8 -37 -4 -12 13 -39 239 -39 333 0 86 15 134 58 183 19
22 25 21 47 -3z m1255 -263 c0 -29 -24 -43 -84 -46 -27 -1 -70 -6 -95 -11 -25
-4 -91 -15 -146 -24 -55 -10 -102 -21 -105 -25 -10 -15 -90 -51 -90 -41 0 6
18 19 41 29 23 10 35 21 28 23 -7 2 18 21 54 42 76 42 166 69 183 55 6 -5 14
-6 17 -3 3 3 11 3 18 -2 18 -10 92 -16 98 -6 8 10 52 30 69 31 6 1 12 -9 12
-22z m-135 -97 l-40 -7 33 -8 c38 -9 44 -16 32 -35 -7 -12 -11 -12 -27 1 -30
27 -47 28 -154 14 -126 -17 -119 -17 -119 -6 0 7 69 32 125 44 11 3 58 5 105
4 64 0 75 -2 45 -7z m80 -173 c-21 -44 -112 -82 -244 -102 -161 -25 -232 1
-260 94 -10 35 -9 44 5 66 20 30 34 33 27 5 -5 -19 -3 -20 20 -9 15 7 24 16
20 22 -3 5 0 7 8 5 8 -3 13 -15 12 -26 -3 -25 26 -47 76 -57 23 -5 31 -4 27 4
-4 6 -2 11 5 11 8 0 6 5 -4 13 -14 10 -3 12 67 12 69 0 93 4 134 25 28 14 55
35 61 47 5 12 20 23 33 25 21 3 23 -1 26 -49 2 -33 -3 -65 -13 -86z m-220 123
c3 -5 1 -10 -4 -10 -6 0 -11 5 -11 10 0 6 2 10 4 10 3 0 8 -4 11 -10z m65 -1
c11 -8 12 -12 3 -16 -7 -2 -13 -11 -13 -19 0 -8 -2 -14 -4 -14 -2 0 -12 -3
-20 -6 -14 -5 -15 -2 -8 17 5 13 7 30 5 37 -6 15 16 16 37 1z m-160 -33 c0 -2
3 -12 7 -21 5 -15 3 -16 -15 -6 -25 13 -29 31 -7 31 8 0 15 -2 15 -4z"/>
<path d="M830 1623 c-19 -8 -55 -16 -81 -16 -33 -1 -49 -6 -61 -21 -15 -21
-15 -21 66 -18 46 1 133 -6 201 -16 66 -11 121 -19 122 -18 0 0 -6 17 -16 36
-15 33 -21 36 -96 52 -96 20 -91 20 -135 1z"/>
<path d="M1758 1623 c7 -3 16 -2 19 1 4 3 -2 6 -13 5 -11 0 -14 -3 -6 -6z"/>
<path d="M1992 1413 c-6 -16 -16 -48 -22 -73 -20 -78 -34 -115 -53 -128 -9 -7
-15 -18 -11 -23 3 -6 -1 -16 -9 -22 -22 -18 -29 -73 -12 -87 9 -8 61 -13 137
-16 214 -5 432 -15 464 -20 17 -2 40 -13 52 -25 21 -19 23 -19 30 -2 4 10 7
43 7 75 0 31 3 54 7 51 12 -7 10 25 -3 49 -9 16 -8 19 2 13 8 -6 10 -4 4 5 -5
8 -9 54 -10 104 -2 86 -3 90 -26 97 -24 7 -397 29 -495 29 -47 0 -53 -2 -62
-27z m-52 -213 c0 -5 -4 -10 -10 -10 -5 0 -10 5 -10 10 0 6 5 10 10 10 6 0 10
-4 10 -10z"/>
<path d="M1400 1181 c0 -5 11 -23 25 -39 14 -17 30 -45 36 -62 17 -48 23 -27
8 30 -10 39 -20 55 -41 66 -15 8 -28 10 -28 5z"/>
<path d="M185 1119 c52 -8 382 -12 374 -5 -2 2 -98 6 -214 9 -116 2 -187 0
-160 -4z"/>
<path d="M1052 1060 c-5 -22 -7 -42 -3 -44 4 -3 12 13 18 35 6 22 7 42 3 44
-4 3 -12 -13 -18 -35z"/>
<path d="M1365 1010 c-11 -4 -29 -17 -39 -29 -22 -24 -71 -28 -122 -9 -30 11
-35 10 -57 -13 l-23 -26 27 -24 c24 -23 30 -24 51 -13 33 19 58 17 58 -4 0
-23 19 -42 42 -42 24 0 34 28 20 51 -7 10 -12 26 -12 35 0 14 3 14 16 3 8 -7
22 -25 30 -41 16 -30 34 -37 34 -13 0 8 5 15 11 15 8 0 7 5 -2 16 -11 14 -9
20 19 43 34 28 43 47 16 37 -9 -4 -24 0 -33 8 -10 9 -23 11 -36 6z"/>
<path d="M1369 851 c-19 -4 -51 -19 -71 -34 -19 -15 -41 -27 -49 -27 -8 0 -26
-7 -41 -14 -25 -13 -62 -18 -139 -16 -32 0 -52 -21 -43 -45 5 -11 14 -15 28
-12 12 3 39 10 61 16 41 10 281 18 290 9 22 -21 -49 -68 -103 -68 -20 0 -23
-3 -14 -12 7 -7 12 -20 12 -30 0 -31 48 -22 84 15 17 19 49 46 71 62 22 16 52
40 67 53 14 13 31 21 36 18 6 -4 13 -2 17 3 3 6 12 8 20 4 21 -8 19 20 -3 40
-10 10 -34 17 -54 17 -19 0 -57 7 -84 15 -27 8 -49 14 -49 14 0 -1 -16 -4 -36
-8z"/>
<path d="M429 622 c-8 -1 -26 -24 -40 -49 -24 -47 -25 -47 -71 -44 -25 1 -48
-2 -52 -7 -14 -23 255 -282 293 -282 9 0 39 11 66 25 28 13 54 25 59 25 23 0
125 79 154 117 26 34 33 55 38 110 6 62 4 70 -16 88 -21 19 -36 20 -219 20
-108 0 -204 -1 -212 -3z m95 -277 c19 -69 19 -75 6 -75 -5 0 -12 17 -16 38 -4
20 -11 46 -17 57 -6 11 -10 23 -9 28 1 4 -2 7 -7 7 -10 0 -9 14 5 45 7 18 9
17 15 -10 4 -16 14 -57 23 -90z m-67 28 c-3 -10 -5 -4 -5 12 0 17 2 24 5 18 2
-7 2 -21 0 -30z"/>
<path d="M1681 607 c-16 -16 -14 -38 10 -82 15 -31 19 -50 14 -83 -5 -32 -2
-48 8 -60 26 -30 37 -94 32 -200 -4 -102 -2 -110 24 -93 23 15 -5 239 -37 289
-8 12 -10 22 -5 22 5 0 17 -13 26 -30 41 -68 139 -110 260 -110 l73 0 70 63
c75 67 177 179 177 193 0 5 -15 18 -33 28 -25 15 -62 21 -174 27 -78 4 -182
14 -231 22 -135 23 -201 27 -214 14z"/>
<path d="M1408 383 c7 -3 16 -2 19 1 4 3 -2 6 -13 5 -11 0 -14 -3 -6 -6z"/>
</g>
</svg>
